HIERARCHY
ROOT Hips
{
  OFFSET 0 89.5177 0.535
  CHANNELS 6 Xposition Yposition Zposition Zrotation Xrotation Yrotation
  JOINT Spine
  {
    OFFSET 12.0259 -0.162855 1.69034e-005
    CHANNELS 3 Zrotation Xrotation Yrotation
    JOINT Spine1
    {
      OFFSET 15.3169 -0.0121922 0
      CHANNELS 3 Zrotation Xrotation Yrotation
      JOINT Spine2
      {
        OFFSET 15.3176 -0.0121908 0
        CHANNELS 3 Zrotation Xrotation Yrotation
        JOINT Neck
        {
          OFFSET 19.9142 1.56338 0
          CHANNELS 3 Zrotation Xrotation Yrotation
          JOINT Head
          {
            OFFSET 6.92651 0 0
            CHANNELS 3 Zrotation Xrotation Yrotation
            End Site
            {
              OFFSET 20.7666 0 0
            }
          }
          JOINT LeftShoulder
          {
            OFFSET -6.20654 0.708824 7.28219
            CHANNELS 3 Zrotation Xrotation Yrotation
            JOINT LeftArm
            {
              OFFSET 14.108 0 -1.52588e-005
              CHANNELS 3 Zrotation Xrotation Yrotation
              JOINT LeftForeArm
              {
                OFFSET 28.5802 0 0
                CHANNELS 3 Zrotation Xrotation Yrotation
                JOINT LeftHand
                {
                  OFFSET 27.092 0 0
                  CHANNELS 3 Zrotation Xrotation Yrotation
                  End Site
                  {
                    OFFSET 9.55928 -0.186424 0.145352
                  }
                }
              }
            }
          }
          JOINT RightShoulder
          {
            OFFSET -6.20654 0.708866 -7.28218
            CHANNELS 3 Zrotation Xrotation Yrotation
            JOINT RightArm
            {
              OFFSET 14.108 0 1.52588e-005
              CHANNELS 3 Zrotation Xrotation Yrotation
              JOINT RightForeArm
              {
                OFFSET 28.5802 0 0
                CHANNELS 3 Zrotation Xrotation Yrotation
                JOINT RightHand
                {
                  OFFSET 27.092 0 0
                  CHANNELS 3 Zrotation Xrotation Yrotation
                  End Site
                  {
                    OFFSET 9.55929 -0.186417 -0.145354
                  }
                }
              }
            }
          }
        }
      }
    }
  }
  JOINT LeftUpLeg
  {
    OFFSET 0.005 -0.535 8.837
    CHANNELS 3 Zrotation Xrotation Yrotation
    JOINT LeftLeg
    {
      OFFSET 39.9035 0 0
      CHANNELS 3 Zrotation Xrotation Yrotation
      JOINT LeftFoot
      {
        OFFSET 39.6689 0 0
        CHANNELS 3 Zrotation Xrotation Yrotation
        JOINT LeftToe
        {
          OFFSET 10.1624 13.6296 0
          CHANNELS 3 Zrotation Xrotation Yrotation
          End Site
          {
            OFFSET 8.38147 0 0
          }
        }
      }
    }
  }
  JOINT RightUpLeg
  {
    OFFSET 0.005 -0.535 -8.837
    CHANNELS 3 Zrotation Xrotation Yrotation
    JOINT RightLeg
    {
      OFFSET 39.9035 0 0
      CHANNELS 3 Zrotation Xrotation Yrotation
      JOINT RightFoot
      {
        OFFSET 39.6689 0 0
        CHANNELS 3 Zrotation Xrotation Yrotation
        JOINT RightToe
        {
          OFFSET 10.1624 13.6296 0
          CHANNELS 3 Zrotation Xrotation Yrotation
          End Site
          {
            OFFSET 8.38147 0 0
          }
        }
      }
    }
  }
}
MOTION
Frames:	11
Frame Time:	0.0333333
161.109 110.284 -67.1752 86.5269 -7.70567 0.424425 -1.05714 1.69019 -0.364059 -2.1049 3.38725 -0.697117 -2.1049 3.38725 -0.697126 -8.30701e-012 -9.0191e-006 -5.27751e-005 -21.7152 11.0582 5.18742 -179.869 -0.631512 -78.3176 -57.4443 -53.8424 12.6842 -96.7879 -3.18055e-015 3.18055e-015 -94.893 2.35321 -40.3633 177.809 9.58844 102.933 -150.406 67.0763 51.9483 -70.6143 2.38542e-015 3.18055e-015 -35.5793 59.428 38.5705 0.864079 3.14332 -179.12 -7.38622 0 -3.97569e-016 -35.2819 19.8507 -22.7034 90 -3.18055e-015 -6.36111e-015 -0.0354412 -14.9849 174.223 -5.24224 3.18056e-015 3.97569e-016 -41.2544 -16.6932 18.6035 90 3.18055e-015 2.78299e-015 
159.965 115.125 -68.4706 86.2203 -6.16163 0.716975 -0.94721 1.79063 -0.562698 -1.87816 3.59071 -1.09631 -1.87816 3.59071 -1.09632 -8.30959e-012 -9.0191e-006 -5.27751e-005 -24.1129 11.5778 4.68573 -179.461 -2.80116 -79.1025 -72.6571 -60.2601 2.35043 -81.9551 3.18055e-015 -1.59028e-015 -91.6794 0.748088 -39.1505 177.645 9.44796 104.063 -160.134 67.6366 59.6986 -61.4279 -3.97569e-015 6.36111e-015 -40.9841 55.6374 44.1759 -1.52708 3.66353 -179.427 -12.2845 3.97569e-016 -1.98785e-016 -35.5028 18.847 -21.3294 90 -3.18055e-015 -0 -1.69636 -18.0904 174.202 -10.2517 -3.18056e-015 5.96354e-016 -41.8742 -14.1071 15.4392 90 -3.18055e-015 9.54166e-015 
158.92 118.751 -69.8341 86.4347 -3.80654 0.41974 -0.72567 1.43995 -0.328738 -1.44375 2.88439 -0.639326 -1.44375 2.88439 -0.639335 -8.30737e-012 -9.0191e-006 -5.27751e-005 -26.183 13.411 3.96319 -178.52 -7.18694 -78.3347 -108.271 -62.4075 -26.7363 -55.4405 6.36111e-015 7.95139e-016 -84.4332 -2.09123 -34.6762 177.518 8.30251 106.707 -174.437 68.9618 70.3042 -57.0571 -1.39149e-015 -0 -45.1884 50.3555 48.7476 -4.01935 2.50618 -178.996 -14.2654 1.98785e-016 -1.98785e-016 -34.833 19.8317 -22.576 90 0 3.18055e-015 -3.00006 -18.1835 174.947 -12.5732 -3.18056e-015 -8.94531e-016 -41.9045 -15.9775 17.605 90 3.18055e-015 5.66536e-015 
157.68 121.372 -71.1782 86.1972 -1.27567 0.0732766 -0.817265 1.6161 -0.333081 -1.62609 3.23723 -0.643262 -1.62609 3.23723 -0.643271 -8.30457e-012 -9.0191e-006 -5.27751e-005 -25.7807 12.2491 3.83968 -178.804 -6.95582 -80.2194 -144.303 -59.3728 -54.0985 -26.0503 -3.18055e-015 -0 -68.0965 -5.3202 -27.9665 178.012 7.73967 104.45 -171.376 71.644 66.2733 -57.5715 0 6.36111e-015 -50.4822 50.1122 55.3646 -4.88207 0.767051 -178.943 -13.0849 4.96962e-017 3.97569e-016 -33.435 20.0584 -22.9438 90 3.18055e-015 -9.54166e-015 -2.38704 -17.1473 175.972 -10.9378 0 2.98177e-016 -39.9698 -17.7581 19.8386 90 6.36111e-015 1.98785e-015 
156.404 123.013 -72.368 86.305 1.00998 -0.189643 -0.824883 1.29417 -0.0615363 -1.64901 2.58956 -0.104284 -1.64901 2.58956 -0.104293 -8.30828e-012 -9.0191e-006 -5.27751e-005 -26.1322 13.5538 2.88066 -179.292 -8.0232 -84.9419 -168.586 -51.6423 -75.5254 -4.13463 3.18055e-015 1.59028e-015 -34.7257 -1.7629 -22.4817 178.148 6.88682 105.095 -168.892 73.5385 61.0687 -60.6383 3.18055e-015 -0 -54.8625 49.0625 59.9239 -5.36132 1.07364 -179.03 -10.1262 3.97569e-016 9.93923e-017 -32.0183 19.9891 -22.9574 90 0 3.18055e-015 -2.95862 -16.7253 176.605 -10.033 0 -9.93923e-016 -38.2432 -15.6506 17.3542 90 3.18055e-015 7.95139e-016 
155.148 123.658 -73.4349 86.6802 2.30088 -0.312702 -0.748822 1.07151 0.353477 -1.50464 2.13876 0.721301 -1.50464 2.13876 0.721292 -8.30703e-012 -9.0191e-006 -5.27751e-005 -27.4214 14.8497 0.888155 -179.292 -11.4018 -86.4204 176.857 -47.9859 -86.9593 -1.16352 -3.18055e-015 -0 -9.78204 -0.592109 -26.7782 178.166 6.85734 105.015 -160.378 72.1572 49.193 -61.9222 -1.59028e-015 3.18055e-015 -54.7192 49.0621 59.214 -6.24578 4.09753 -179.298 -7.81412 1.59028e-015 2.48481e-016 -31.7909 19.5386 -22.4191 90 9.54166e-015 4.77083e-015 -4.6606 -15.7283 176.667 -10.2052 -1.59028e-015 1.98785e-016 -37.2209 -13.326 14.6476 90 3.18055e-015 3.97569e-015 
153.943 123.269 -74.5039 86.5189 2.74096 -0.528262 -0.693921 1.20874 0.394745 -1.39663 2.41305 0.804553 -1.39663 2.41305 0.804543 -8.30693e-012 -9.0191e-006 -5.27751e-005 -28.661 14.1997 1.32271 -178.596 -12.5094 -83.5418 174.576 -46.8829 -85.8913 -6.08978 0 -3.18055e-015 -2.00827 -5.38732 -16.5161 178.409 7.07063 102.716 -149.803 68.9459 38.0332 -61.1195 0 -3.18055e-015 -53.925 49.2905 58.2465 -7.07087 7.77455 -179.322 -7.16382 0 2.98177e-016 -31.0447 19.1762 -21.9918 90 0 -4.77083e-015 -5.5114 -13.5794 176.742 -9.68649 -4.77083e-015 -1.39149e-015 -36.9999 -13.2794 14.6035 90 0 1.19271e-015 
152.779 121.711 -75.7004 86.505 3.86171 -0.446999 -0.689928 1.30446 0.350245 -1.38837 2.60505 0.716637 -1.38837 2.60505 0.716628 -8.30758e-012 -9.0191e-006 -5.27751e-005 -29.3667 12.7326 2.06225 -178.547 -13.4072 -83.7549 169.3 -45.727 -89.9071 -4.51081 -1.59028e-015 -0 2.39274 -14.657 -10.4525 178.285 7.56275 102.818 -147.534 67.7894 35.7164 -59.3401 -4.77083e-015 -0 -53.0695 48.8221 57.0969 -7.75073 8.21938 -179.591 -6.34522 0 -0 -30.3035 19.6407 -22.6321 90 -6.36111e-015 3.18055e-015 -6.21798 -12.1842 176.503 -8.98212 0 1.59028e-015 -36.067 -13.8572 15.3067 90 0 -1.59028e-015 
151.509 119.036 -76.9871 86.4014 5.37485 -0.394899 -0.68147 1.30418 0.306396 -1.37045 2.60507 0.628713 -1.37045 2.60507 0.628703 -8.30639e-012 -9.0191e-006 -5.27751e-005 -29.4146 11.6379 2.64594 -178.496 -14.1877 -83.8848 162.567 -45.0543 -94.5894 -3.98282 0 -1.59028e-015 8.49381 -15.0492 -9.78856 178.228 8.03576 102.477 -147.291 66.7088 35.2387 -57.2631 3.18055e-015 9.54166e-015 -52.4548 48.5042 56.3814 -8.47627 7.69982 -179.631 -6.17782 -1.59028e-015 -5.96354e-016 -29.3777 20.5811 -23.9082 90 -6.36111e-015 -0 -6.91196 -12.4171 176.29 -8.97994 1.59028e-015 -0 -34.5482 -14.1577 15.6993 90 -3.18055e-015 7.95139e-016 
150.038 115.306 -78.3071 85.7958 6.71686 -0.753137 -0.602865 1.30159 0.380271 -1.21484 2.59954 0.7747 -1.21484 2.59954 0.774691 -8.30887e-012 -9.0191e-006 -5.27751e-005 -29.614 10.9869 2.62418 -178.383 -15.0859 -83.8077 164.597 -45.2096 -92.4933 -3.83443 -3.18055e-015 -1.59028e-015 3.3925 -13.0841 -12.3107 178.117 8.60148 102.397 -148.415 65.7856 35.8194 -55.4607 -4.77083e-015 9.54166e-015 -51.7251 48.0652 55.5254 -8.50602 7.73828 -179.122 -6.07044 3.18055e-015 4.47266e-016 -28.4998 20.8471 -24.3004 90 0 -1.59028e-015 -6.94841 -13.1568 176.718 -9.23702 0 3.97569e-016 -34.2161 -14.2353 15.7956 90 0 -1.59028e-015 
148.397 110.503 -79.6132 85.0448 8.46241 -1.29885 -0.51119 1.25521 0.581108 -1.03547 2.50559 1.17399 -1.03547 2.50559 1.17399 -8.30659e-012 -9.0191e-006 -5.27751e-005 -29.4717 10.5836 1.92398 -178.223 -15.9079 -83.5426 162.892 -44.7602 -92.8355 -3.36078 -3.18055e-015 -7.95139e-015 -0.543055 -10.6559 -13.7257 177.793 9.77361 102.789 -150.764 64.9204 37.2996 -53.2972 0 -2.22639e-014 -50.8435 47.5774 54.4482 -8.30585 7.42641 -178.433 -5.98602 0 2.48481e-017 -28.2977 20.4458 -23.7759 90 0 2.38542e-015 -6.42792 -13.5322 177.493 -9.047 0 -7.95139e-016 -34.768 -14.2264 15.772 90 0 1.59028e-015 
